<svg width="422" height="230" viewBox="0 0 422 230" fill="none" xmlns="http://www.w3.org/2000/svg">
<g clip-path="url(#clip0)">
<path d="M212.354 230C326.783 230 419.546 223.845 419.546 216.252C419.546 208.659 326.783 202.504 212.354 202.504C97.9254 202.504 5.16249 208.659 5.16249 216.252C5.16249 223.845 97.9254 230 212.354 230Z" fill="#E6EBF3"/>
<path d="M204.413 65.7484C170.656 65.7484 146.419 87.4557 146.419 138.106C146.419 195.51 170.656 210.705 204.413 210.705C238.17 210.705 263.851 194.062 263.851 138.106C263.851 78.2904 238.17 65.7484 204.413 65.7484ZM204.635 191.651C181.254 191.651 169.039 177.902 169.039 138.143C169.039 103.061 181.754 84.5614 205.135 84.5614C228.516 84.5614 241.231 96.7134 241.231 138.143C241.231 176.9 228.016 191.651 204.635 191.651Z" fill="#2F2E41"/>
<path d="M126.205 170.667H112.248V129.472C112.248 127.284 111.38 125.186 109.837 123.639C108.293 122.092 106.2 121.222 104.017 121.222H100.746C99.6652 121.222 98.5948 121.436 97.5962 121.85C96.5976 122.265 95.6902 122.873 94.9258 123.639C94.1615 124.405 93.5552 125.314 93.1416 126.315C92.7279 127.316 92.515 128.389 92.515 129.472V170.667H53.1466C52.3367 170.667 51.5406 170.457 50.8354 170.058C50.1303 169.658 49.5401 169.083 49.122 168.388C48.704 167.693 48.4723 166.901 48.4495 166.09C48.4267 165.278 48.6136 164.475 48.9919 163.757L90.659 84.7137C91.1785 83.7283 91.4934 82.6475 91.5846 81.5367C91.6758 80.4259 91.5416 79.3081 91.1899 78.2507C90.8382 77.1934 90.2764 76.2184 89.5384 75.3847C88.8005 74.5509 87.9016 73.8757 86.896 73.3998L84.4363 72.2356C82.5264 71.3317 80.3428 71.1982 78.3375 71.8628C76.3321 72.5274 74.6584 73.9393 73.6626 75.8063L22.8441 171.09C21.9788 172.712 21.526 174.524 21.526 176.363V176.363C21.526 177.833 21.8147 179.287 22.3756 180.644C22.9365 182.002 23.7587 183.235 24.7951 184.274C25.8315 185.312 27.0619 186.136 28.416 186.699C29.7701 187.261 31.2215 187.55 32.6872 187.55H92.515V213.599C92.515 214.898 92.7702 216.183 93.2661 217.383C93.7619 218.583 94.4886 219.673 95.4048 220.591C96.3209 221.51 97.4086 222.238 98.6056 222.735C99.8027 223.232 101.086 223.488 102.381 223.488H102.381C103.677 223.488 104.96 223.232 106.157 222.735C107.354 222.238 108.442 221.51 109.358 220.591C110.274 219.673 111.001 218.583 111.497 217.383C111.992 216.183 112.248 214.898 112.248 213.599V187.55H126.205C128.438 187.55 130.581 186.661 132.16 185.078C133.74 183.495 134.627 181.347 134.627 179.108V179.108C134.627 176.87 133.74 174.722 132.16 173.139C130.581 171.556 128.438 170.667 126.205 170.667V170.667Z" fill="#80CBC4"/>
<path d="M384.653 170.667H370.696V129.472C370.696 127.284 369.828 125.186 368.285 123.639C366.741 122.092 364.648 121.222 362.465 121.222H359.194C358.113 121.222 357.043 121.436 356.044 121.85C355.046 122.265 354.138 122.873 353.374 123.639C352.61 124.405 352.003 125.314 351.59 126.315C351.176 127.316 350.963 128.389 350.963 129.472V170.667H311.595C310.785 170.667 309.989 170.457 309.284 170.058C308.578 169.658 307.988 169.083 307.57 168.388C307.152 167.693 306.92 166.901 306.898 166.09C306.875 165.278 307.062 164.475 307.44 163.757L349.107 84.7137C349.627 83.7283 349.941 82.6475 350.033 81.5367C350.124 80.4259 349.99 79.3081 349.638 78.2507C349.286 77.1934 348.725 76.2184 347.987 75.3847C347.249 74.5509 346.35 73.8757 345.344 73.3998L342.884 72.2356C340.974 71.3317 338.791 71.1982 336.786 71.8628C334.78 72.5274 333.106 73.9393 332.111 75.8063L281.292 171.09C280.427 172.712 279.974 174.524 279.974 176.363V176.363C279.974 179.33 281.15 182.176 283.243 184.274C285.336 186.372 288.175 187.55 291.135 187.55H350.963V213.599C350.963 216.222 352.003 218.737 353.853 220.591C355.703 222.446 358.213 223.488 360.829 223.488V223.488C363.446 223.488 365.956 222.446 367.806 220.591C369.656 218.737 370.696 216.222 370.696 213.599V187.55H384.653C386.887 187.55 389.029 186.661 390.608 185.078C392.188 183.495 393.075 181.347 393.075 179.108V179.108C393.075 176.87 392.188 174.722 390.608 173.139C389.029 171.556 386.887 170.667 384.653 170.667Z" fill="#80CBC4"/>
<path d="M130.055 165.843H116.098V124.649C116.098 123.565 115.885 122.492 115.471 121.491C115.058 120.491 114.451 119.581 113.687 118.815C112.923 118.049 112.015 117.441 111.017 117.027C110.018 116.612 108.948 116.399 107.867 116.399H104.596C102.413 116.399 100.32 117.268 98.7761 118.815C97.2325 120.362 96.3653 122.461 96.3653 124.649V165.843H56.9969C56.187 165.843 55.3909 165.633 54.6857 165.234C53.9806 164.835 53.3903 164.259 52.9723 163.564C52.5543 162.869 52.3226 162.077 52.2998 161.266C52.277 160.454 52.4639 159.651 52.8422 158.933L94.5093 79.89C95.0288 78.9045 95.3436 77.8237 95.4349 76.7129C95.5261 75.6021 95.3919 74.4843 95.0402 73.4269C94.6885 72.3696 94.1267 71.3946 93.3887 70.5609C92.6507 69.7272 91.7518 69.0519 90.7463 68.576L88.2866 67.4118C86.3767 66.5079 84.1931 66.3744 82.1877 67.039C80.1824 67.7036 78.5087 69.1155 77.5129 70.9825L26.6944 166.266C25.8291 167.888 25.3763 169.7 25.3763 171.54V171.54C25.3763 174.507 26.5522 177.352 28.6453 179.45C30.7385 181.548 33.5774 182.726 36.5375 182.726H96.3653V208.775C96.3653 210.074 96.6205 211.36 97.1163 212.559C97.6121 213.759 98.3389 214.849 99.2551 215.768C100.171 216.686 101.259 217.414 102.456 217.911C103.653 218.408 104.936 218.664 106.232 218.664H106.232C108.848 218.664 111.358 217.622 113.208 215.768C115.058 213.913 116.098 211.398 116.098 208.775V182.726H130.055C131.161 182.726 132.256 182.508 133.278 182.084C134.3 181.66 135.228 181.038 136.011 180.254C136.793 179.47 137.413 178.539 137.836 177.515C138.26 176.491 138.477 175.393 138.477 174.285V174.285C138.477 173.176 138.26 172.078 137.836 171.054C137.413 170.03 136.793 169.099 136.011 168.316C135.228 167.532 134.3 166.91 133.278 166.486C132.256 166.061 131.161 165.843 130.055 165.843V165.843Z" stroke="#3F3D56" stroke-miterlimit="10"/>
<path d="M391.872 165.843H377.915V124.649C377.915 122.461 377.048 120.362 375.504 118.815C373.96 117.268 371.867 116.399 369.684 116.399H366.413C365.332 116.399 364.262 116.612 363.264 117.027C362.265 117.441 361.357 118.049 360.593 118.815C359.829 119.581 359.223 120.491 358.809 121.491C358.395 122.492 358.182 123.565 358.182 124.649V165.843H318.814C318.004 165.843 317.208 165.633 316.503 165.234C315.798 164.835 315.207 164.259 314.789 163.564C314.371 162.869 314.14 162.077 314.117 161.266C314.094 160.454 314.281 159.651 314.659 158.933L356.326 79.89C356.846 78.9045 357.161 77.8237 357.252 76.7129C357.343 75.6021 357.209 74.4843 356.857 73.4269C356.506 72.3696 355.944 71.3946 355.206 70.5609C354.468 69.7272 353.569 69.0519 352.563 68.576L350.104 67.4118C348.194 66.5079 346.01 66.3744 344.005 67.039C341.999 67.7036 340.326 69.1155 339.33 70.9825L288.511 166.266C287.646 167.888 287.193 169.7 287.193 171.54C287.193 174.507 288.369 177.352 290.462 179.45C292.556 181.548 295.394 182.726 298.355 182.726H358.182V208.775C358.182 211.398 359.222 213.913 361.072 215.768C362.922 217.622 365.432 218.664 368.049 218.664V218.664C370.665 218.664 373.175 217.622 375.025 215.768C376.875 213.913 377.915 211.398 377.915 208.775V182.726H391.872C392.978 182.726 394.073 182.508 395.095 182.084C396.117 181.66 397.045 181.038 397.828 180.254C398.61 179.47 399.23 178.539 399.653 177.515C400.077 176.491 400.294 175.393 400.294 174.285V174.285C400.294 172.046 399.407 169.899 397.828 168.316C396.248 166.732 394.106 165.843 391.872 165.843V165.843Z" stroke="#3F3D56" stroke-miterlimit="10"/>
<path d="M212.113 61.4069C178.356 61.4069 154.119 83.1142 154.119 133.764C154.119 191.168 178.356 206.363 212.113 206.363C245.871 206.363 271.552 189.721 271.552 133.764C271.552 73.9489 245.871 61.4069 212.113 61.4069ZM212.335 187.309C188.954 187.309 176.739 173.561 176.739 133.802C176.739 98.72 189.454 80.2199 212.835 80.2199C236.216 80.2199 248.932 92.3719 248.932 133.802C248.931 172.558 235.716 187.309 212.335 187.309V187.309Z" stroke="#3F3D56" stroke-miterlimit="10"/>
<path d="M185.055 12.2638C187.854 12.2638 190.122 9.98985 190.122 7.18483C190.122 4.37981 187.854 2.1059 185.055 2.1059C182.256 2.1059 179.988 4.37981 179.988 7.18483C179.988 9.98985 182.256 12.2638 185.055 12.2638Z" fill="#2F2E41"/>
<path d="M197.414 36.9152C205.264 36.9152 211.628 28.6514 211.628 18.4576C211.628 8.26374 205.264 0 197.414 0C189.565 0 183.201 8.26374 183.201 18.4576C183.201 28.6514 189.565 36.9152 197.414 36.9152Z" fill="#2F2E41"/>
<path opacity="0.1" d="M197.414 31.3408C190.294 31.3408 184.397 24.5417 183.362 15.6704C183.255 16.5956 183.201 17.5262 183.201 18.4576C183.201 28.6515 189.565 36.9152 197.414 36.9152C205.264 36.9152 211.628 28.6515 211.628 18.4576C211.628 17.5262 211.574 16.5956 211.466 15.6704C210.432 24.5417 204.534 31.3408 197.414 31.3408Z" fill="black"/>
<path d="M226.337 72.5115C226.031 73.7686 224.715 74.7755 223.258 75.479C220.193 76.958 216.413 77.3993 212.747 77.5474C211.812 77.6044 210.873 77.587 209.941 77.4955C208.134 77.3203 206.438 76.5392 205.129 75.2785C205.036 75.2174 204.959 75.1336 204.907 75.0349C204.854 74.9362 204.828 74.8258 204.829 74.714C204.831 74.6021 204.861 74.4926 204.916 74.3955C204.972 74.2985 205.051 74.2171 205.146 74.1589C207.098 72.0099 210.355 70.6921 213.637 69.7434C216.125 69.0239 220.464 67.1605 223.177 67.412C225.806 67.6556 226.722 70.9241 226.337 72.5115Z" fill="#3F3D56"/>
<path opacity="0.1" d="M226.337 72.5115C226.031 73.7686 224.715 74.7755 223.258 75.479C220.193 76.958 216.413 77.3993 212.747 77.5474C211.812 77.6044 210.873 77.587 209.941 77.4955C208.134 77.3203 206.438 76.5392 205.129 75.2785C205.036 75.2174 204.959 75.1336 204.907 75.0349C204.854 74.9362 204.828 74.8258 204.829 74.714C204.831 74.6021 204.861 74.4926 204.916 74.3955C204.972 74.2985 205.051 74.2171 205.146 74.1589C207.098 72.0099 210.355 70.6921 213.637 69.7434C216.125 69.0239 220.464 67.1605 223.177 67.412C225.806 67.6556 226.722 70.9241 226.337 72.5115Z" fill="black"/>
<path d="M187.373 63.1153C186.438 64.9528 186.269 67.0874 186.903 69.05C187.547 70.9977 188.754 72.7099 190.371 73.9697C194.336 77.1552 199.792 77.5936 204.874 77.5494C209.327 77.5105 213.774 77.205 218.191 76.6345C219.671 76.503 221.126 76.1645 222.512 75.6289C224.171 74.9097 225.628 73.5906 226.219 71.8788C226.809 70.167 226.39 68.071 224.988 66.9286C223.756 65.9248 222.057 65.7867 220.472 65.6913L211.403 65.1451C212.299 64.2363 213.492 63.7223 214.583 63.0616C216.031 62.1851 216.992 60.7135 218.045 59.3868C219.666 57.4442 221.431 55.626 223.323 53.9473C223.618 55.6442 224.689 57.0376 225.95 58.2085C227.21 59.3793 228.663 60.3219 229.973 61.4367C233.147 64.1367 235.431 67.8013 238.769 70.2947C241.064 69.6901 243.21 68.6162 245.072 67.1404L243.775 64.7857C243.667 64.5433 243.499 64.3328 243.286 64.1743C242.919 63.948 242.446 64.0646 242.02 64.0006C240.88 63.8293 240.383 62.5109 239.936 61.4466C238.708 58.5248 236.358 56.2579 234.351 53.8077C232.87 51.999 231.556 50.059 230.425 48.0116C229.751 46.7906 229.133 45.5192 228.219 44.4673C227.304 43.4153 226.021 42.5882 224.629 42.5853C223.399 42.5827 222.264 43.2087 221.206 43.8384C217.985 45.7564 214.885 47.8731 211.925 50.1762C210.376 51.3815 208.836 52.655 207.019 53.3941C206.254 53.7053 205.448 53.9179 204.714 54.2965C203.428 54.9597 202.453 56.0816 201.402 57.0776C197.656 60.6298 192.527 62.9313 187.373 63.1153Z" fill="#9079D2"/>
<path d="M206.335 37.8318C206.293 38.9177 206.063 39.9878 205.654 40.9944C205.447 41.4964 205.139 41.9503 204.749 42.3278C204.36 42.7052 203.896 42.9981 203.389 43.1883C202.668 43.3818 201.912 43.4064 201.18 43.2601C200.542 43.1933 199.927 42.9833 199.381 42.6457C198.53 42.0597 198.106 41.0142 197.952 39.991C197.797 38.969 197.867 37.9247 197.768 36.8953C197.671 36.0639 197.514 35.2407 197.296 34.4327C197.229 34.1639 197.161 33.8963 197.094 33.6287C197.029 33.3611 196.964 33.0936 196.905 32.826C196.851 32.5745 196.8 32.3218 196.757 32.0679C196.721 31.8536 196.689 31.638 196.665 31.4212C196.644 30.7786 196.537 30.1416 196.348 29.5272C196.17 29.1287 195.948 28.7517 195.685 28.4036C195.573 28.2426 195.464 28.0815 195.364 27.9143C195.074 27.4797 194.94 26.9598 194.982 26.4389C194.994 26.3584 195.013 26.2792 195.04 26.2023C195.05 26.1726 195.061 26.1429 195.073 26.1144C195.185 26.0841 195.287 26.0271 195.371 25.9483C195.455 25.8695 195.519 25.7713 195.557 25.6622C195.599 25.4278 195.579 25.1864 195.499 24.9623C195.406 24.6492 195.28 24.3472 195.122 24.0617C195.018 23.8734 194.666 23.534 194.663 23.3184C194.658 22.8849 195.504 22.5355 195.846 22.3646C196.891 21.8401 198.056 21.6033 199.222 21.6783C199.97 21.7291 200.781 21.9595 201.194 22.5876C201.565 23.1537 201.515 23.887 201.673 24.5448C201.69 24.6404 201.73 24.7303 201.791 24.8062C201.871 24.8799 201.973 24.9266 202.081 24.94C202.264 24.9765 202.452 24.984 202.637 24.9623H202.639C202.688 24.9584 202.736 24.9514 202.784 24.9412C203.073 24.8878 203.346 24.7697 203.583 24.5956C203.736 24.5547 203.891 24.5213 204.046 24.4953C204.053 24.4946 204.059 24.4934 204.065 24.4915C204.684 26.45 204.764 28.5497 205.271 30.5442C205.522 31.5364 205.882 32.5163 205.932 33.537C205.936 33.5816 205.937 33.6274 205.939 33.6733C205.946 34.0015 205.92 34.3323 205.934 34.6593C205.938 34.8066 205.955 34.9532 205.983 35.0978C206.038 35.3304 206.107 35.5596 206.189 35.7841L206.193 35.7953C206.217 35.8671 206.239 35.9402 206.257 36.0133C206.271 36.0666 206.283 36.1186 206.293 36.1719L206.294 36.1756C206.386 36.723 206.4 37.2806 206.335 37.8318V37.8318Z" fill="#FBBEBE"/>
<path d="M197.661 25.0231C201.689 25.0231 204.953 21.7508 204.953 17.7144C204.953 13.6779 201.689 10.4056 197.661 10.4056C193.634 10.4056 190.369 13.6779 190.369 17.7144C190.369 21.7508 193.634 25.0231 197.661 25.0231Z" fill="#FBBEBE"/>
<path d="M243.957 57.5356C243.746 55.5416 243.039 53.6326 241.9 51.9835C242.09 53.1107 242.279 54.2376 242.469 55.3641C242.233 55.4325 241.982 55.4304 241.747 55.358C241.512 55.2857 241.303 55.1461 241.147 54.9565C240.839 54.5722 240.605 54.1353 240.453 53.667C239.625 51.6057 238.541 49.6567 237.229 47.8658C232.586 47.4781 227.997 45.5493 223.915 43.301C219.832 41.0539 216.01 38.3595 211.981 36.017C211.283 35.5938 210.555 35.2213 209.803 34.9021C208.543 34.3955 207.127 34.1329 205.932 33.537C205.852 33.4974 205.772 33.4553 205.693 33.4119C205.423 33.2647 205.167 33.0926 204.929 32.8978C204.8 32.7931 204.678 32.6806 204.563 32.5609C203.967 31.8656 203.494 31.0728 203.165 30.2171C202.524 28.795 202.295 27.0793 201.655 25.6572C201.949 25.3816 202.28 25.1478 202.637 24.9623H202.639C202.69 24.935 202.742 24.909 202.796 24.8843C203.049 24.7647 203.312 24.6681 203.583 24.5956C203.736 24.5547 203.891 24.5213 204.046 24.4953C204.053 24.4946 204.059 24.4934 204.065 24.4916C204.787 24.3736 205.527 24.4323 206.222 24.6625C207.237 25.0069 208.094 25.6944 208.948 26.3448C210.335 27.3245 211.666 28.3824 212.934 29.5135C213.638 30.1899 214.281 30.9331 215.039 31.5476C215.668 32.0346 216.332 32.4755 217.025 32.8669C221.124 35.3146 225.224 37.762 229.325 40.209C230.713 41.0377 232.102 41.8665 233.459 42.7435C235.521 44.0764 237.508 45.5208 239.494 46.964C240.665 47.8138 241.835 48.664 243.004 49.5146C243.388 49.76 243.725 50.0721 243.999 50.4362C244.241 50.8497 244.392 51.3107 244.44 51.7877C244.734 53.7151 244.568 55.6847 243.957 57.5356V57.5356Z" fill="#FBBEBE"/>
<path d="M208.143 43.3283C207.652 45.5395 205.422 46.8761 204.256 48.8185C202.808 51.2291 203.399 54.0312 203.942 56.7924C202.949 57.6509 201.955 58.5093 200.96 59.3678C200.411 59.8398 199.863 60.3142 199.272 60.7317C198.41 61.3102 197.51 61.8284 196.578 62.2826C195.698 62.736 194.818 63.1898 193.938 63.644C193.12 64.105 192.253 64.4732 191.353 64.7416C189.619 65.1875 187.778 64.8754 186.062 64.3588C185.86 64.3056 185.665 64.2261 185.484 64.1222C185.377 64.0582 185.284 63.9736 185.209 63.8732C185.04 63.5693 184.979 63.2169 185.035 62.8735C185.209 59.9798 185.915 57.1467 186.618 54.3347C186.994 52.6477 187.5 50.9923 188.13 49.3834C188.748 48.0047 189.459 46.6696 190.257 45.3871C191.138 43.7735 192.182 42.2547 193.372 40.8545C193.951 40.3155 194.438 39.6854 194.815 38.9889C195.254 37.9855 195.085 36.8347 195.174 35.7421C195.242 34.9212 195.459 34.1197 195.815 33.3773V33.3761C196.005 32.9761 196.235 32.5961 196.5 32.2413C196.62 32.5213 196.739 32.8008 196.859 33.08C196.938 33.2633 197.017 33.4463 197.094 33.6288C197.196 33.8641 197.296 34.0987 197.396 34.3324C197.684 35.0038 197.971 35.6748 198.258 36.3454C198.569 37.19 199.011 37.9799 199.569 38.6854C199.823 39.0467 200.167 39.3356 200.567 39.5238C200.966 39.7121 201.408 39.7932 201.848 39.7594C202.288 39.7256 202.712 39.5779 203.078 39.3308C203.445 39.0838 203.741 38.7457 203.938 38.3497C204.353 37.6105 204.654 36.8123 204.83 35.9824C205.074 34.972 205.108 33.922 204.929 32.8979C204.631 30.9258 203.794 28.9116 203.186 27.0794C202.939 26.4685 202.795 25.8203 202.762 25.1618C202.763 25.0878 202.771 25.0141 202.784 24.9413C202.788 24.9227 202.792 24.9029 202.796 24.8843C203.049 24.7648 203.312 24.6682 203.583 24.5957C203.736 24.5548 203.891 24.5214 204.046 24.4954C204.581 27.399 205.117 30.3027 205.654 33.2064C205.667 33.2745 205.68 33.3426 205.693 33.412C205.769 33.8282 205.847 34.2444 205.934 34.6594C206.011 35.036 206.095 35.4114 206.189 35.7842L206.193 35.7954C206.225 35.9217 206.259 36.0468 206.293 36.172L206.294 36.1757C206.39 36.5176 206.496 36.857 206.616 37.1915C207.343 39.2069 208.609 41.236 208.143 43.3283Z" fill="#7C59E2"/>
<path d="M237.737 74.4026C237.714 74.8285 237.796 75.2536 237.977 75.64C238.433 76.476 239.528 76.666 240.476 76.7442C246.011 77.2002 251.58 77.0302 257.077 76.2372C257.375 76.2168 257.664 76.1268 257.922 75.9744C258.703 75.4252 258.222 74.0867 257.368 73.6582C256.515 73.2297 255.502 73.3329 254.566 73.1474C253.635 72.9127 252.749 72.5276 251.943 72.0072C250.044 70.9137 248.172 69.7736 246.329 68.5869C245.231 67.8804 243.936 67.1264 242.699 67.5453C239.351 68.6807 237.715 70.7821 237.737 74.4026Z" fill="#3F3D56"/>
<path d="M196.933 32.6712V32.6724C196.925 32.7244 196.916 32.7752 196.905 32.826C196.891 32.9103 196.875 32.9957 196.859 33.0799C196.706 33.8666 196.518 34.6495 196.302 35.4274C195.709 37.5767 194.914 39.6912 194.125 41.7748C192.01 47.3617 189.893 52.9489 187.776 58.5365C187.243 59.9438 186.71 61.3522 186.103 62.731C185.9 63.1906 185.691 63.6539 185.484 64.1221C184.74 65.7982 184.025 67.5287 183.788 69.3125C183.567 70.4865 183.541 71.6892 183.713 72.8715C183.95 74.0409 184.658 75.183 185.767 75.6154C186.308 75.8272 187.083 76.1109 186.935 76.6745C186.854 76.9842 186.503 77.1353 186.188 77.1874C185.772 77.2538 185.346 77.2277 184.941 77.1108C184.536 76.9939 184.162 76.7892 183.845 76.511C183.253 75.9845 182.798 75.1657 182.011 75.0778C181.466 75.0183 180.964 75.3453 180.465 75.5745C178.428 76.5073 176.055 75.8545 173.915 75.1917C174.084 74.3234 174.954 73.751 175.818 73.5776C176.681 73.403 177.575 73.5268 178.456 73.5033C178.738 73.5184 179.018 73.4462 179.258 73.2964C179.473 73.0986 179.624 72.8405 179.691 72.5556C180.259 70.8698 180.681 69.1383 180.953 67.3801C181.237 65.543 181.356 63.6774 181.761 61.8626C182.076 60.4467 182.563 59.0754 182.981 57.6855C183.789 54.8238 184.452 51.9231 184.968 48.9944C185.229 47.7776 185.416 46.546 185.528 45.3065C185.599 44.2784 185.565 43.2452 185.664 42.2208C185.83 40.888 186.108 39.5715 186.494 38.2852C186.872 36.8817 187.25 35.479 187.627 34.0772C188.187 32.0022 188.787 29.8468 190.206 28.2339C190.699 27.6661 191.303 27.2058 191.981 26.8815C192.658 26.5572 193.395 26.3758 194.145 26.3485C194.427 26.3482 194.707 26.3785 194.982 26.4389C195.028 26.4501 195.073 26.4612 195.119 26.4736C195.419 26.5521 195.706 26.6713 195.973 26.8279C196.411 26.5492 196.633 26.6471 196.924 27.0769C197.178 27.5318 197.298 28.05 197.27 28.5709C197.294 29.9454 197.182 31.319 196.933 32.6712Z" fill="#FBBEBE"/>
<path d="M197.414 34.3138L197.396 34.3324L197.296 34.4327L196.302 35.4274L195.815 33.3773L194.145 26.3485C194.427 26.3482 194.707 26.3785 194.982 26.4389C194.994 26.3584 195.013 26.2792 195.04 26.2023L195.119 26.4736L195.685 28.4036L196.757 32.0679L196.934 32.6712V32.6724L197.414 34.3138Z" fill="#7C59E2"/>
<path d="M203.72 11.8902C203.719 12.5411 203.59 13.1854 203.341 13.7863C203.091 14.3872 202.726 14.9329 202.266 15.3923C202.1 15.5596 201.921 15.7143 201.732 15.8555C200.879 16.4999 199.84 16.8487 198.772 16.8492H192.843C191.533 16.8471 190.277 16.324 189.351 15.3947C188.425 14.4654 187.905 13.2059 187.905 11.8927C187.905 10.5794 188.425 9.31989 189.351 8.39058C190.277 7.46128 191.533 6.93818 192.843 6.93616H198.772C200.083 6.93958 201.338 7.46247 202.265 8.39066C203.192 9.31886 203.715 10.5769 203.72 11.8902V11.8902Z" fill="#2F2E41"/>
<path d="M209.279 12.2638C212.078 12.2638 214.347 9.98985 214.347 7.18483C214.347 4.37981 212.078 2.1059 209.279 2.1059C206.481 2.1059 204.212 4.37981 204.212 7.18483C204.212 9.98985 206.481 12.2638 209.279 12.2638Z" fill="#2F2E41"/>
<path opacity="0.1" d="M209.156 2.1059C209.094 2.1059 209.032 2.10837 208.97 2.11059C210.281 2.15836 211.522 2.71387 212.433 3.66026C213.343 4.60664 213.852 5.87011 213.852 7.18483C213.852 8.49955 213.343 9.76302 212.433 10.7094C211.522 11.6558 210.281 12.2113 208.97 12.2591C209.032 12.2613 209.094 12.2638 209.156 12.2638C210.5 12.2638 211.788 11.7287 212.739 10.7762C213.689 9.82369 214.223 8.53185 214.223 7.18483C214.223 5.83782 213.689 4.54597 212.739 3.59348C211.788 2.641 210.5 2.1059 209.156 2.1059V2.1059Z" fill="black"/>
<path opacity="0.1" d="M185.055 2.1059C185.117 2.1059 185.179 2.10837 185.24 2.11059C183.929 2.15836 182.688 2.71387 181.778 3.66026C180.867 4.60664 180.358 5.87011 180.358 7.18483C180.358 8.49955 180.867 9.76302 181.778 10.7094C182.688 11.6558 183.929 12.2113 185.24 12.2591C185.179 12.2613 185.117 12.2638 185.055 12.2638C183.712 12.2626 182.424 11.727 181.475 10.7746C180.525 9.82224 179.992 8.53108 179.992 7.18483C179.992 5.83859 180.525 4.54742 181.475 3.59506C182.424 2.64271 183.712 2.10708 185.055 2.1059Z" fill="black"/>
<path opacity="0.1" d="M201.732 15.8555C200.879 16.4999 199.84 16.8487 198.772 16.8492H192.843C191.775 16.8487 190.736 16.4999 189.883 15.8555H201.732Z" fill="black"/>
<path d="M240.022 52.657C240.022 52.657 241.3 56.3464 242.469 55.3641L241.537 50.5416L240.022 52.657Z" fill="#FBBEBE"/>
<path d="M395.476 165.168C396.666 165.602 397.94 165.752 399.198 165.608C400.456 165.464 401.663 165.029 402.724 164.338C403.786 163.646 404.673 162.717 405.315 161.623C405.957 160.53 406.337 159.301 406.424 158.035C406.512 156.77 406.305 155.501 405.82 154.329C405.335 153.156 404.585 152.113 403.629 151.281C402.673 150.449 401.537 149.851 400.312 149.534C399.086 149.217 397.803 149.19 396.565 149.454L396.769 153.672L394.779 150.057C392.825 150.978 391.316 152.638 390.582 154.672C390.322 155.385 390.164 156.131 390.112 156.889C389.987 158.666 390.442 160.435 391.41 161.929C392.378 163.423 393.806 164.56 395.476 165.168V165.168Z" fill="#57B894"/>
<path d="M405.326 214.08C404.623 210.494 407.668 207.314 410.676 205.248C413.684 203.181 417.198 201.15 418.225 197.643C419.699 192.602 415.306 187.986 411.887 184.005C409.35 181.051 407.171 177.806 405.397 174.337C404.685 172.947 404.031 171.493 403.844 169.941C403.575 167.707 404.291 165.484 405.012 163.353C407.416 156.253 409.986 149.212 412.722 142.232" stroke="#3F3D56" stroke-miterlimit="10"/>
<path d="M395.813 164.082C397.003 164.516 398.277 164.667 399.535 164.522C400.792 164.378 402 163.943 403.061 163.252C404.123 162.56 405.009 161.631 405.651 160.537C406.294 159.444 406.673 158.216 406.761 156.95C406.849 155.684 406.642 154.415 406.157 153.243C405.672 152.071 404.922 151.027 403.966 150.195C403.01 149.363 401.874 148.765 400.648 148.448C399.422 148.131 398.14 148.104 396.902 148.369L397.106 152.586L395.115 148.972C393.162 149.892 391.652 151.552 390.919 153.587C390.659 154.299 390.5 155.046 390.449 155.803C390.323 157.58 390.779 159.349 391.747 160.844C392.715 162.338 394.142 163.475 395.813 164.082V164.082Z" stroke="#3F3D56" stroke-miterlimit="10"/>
<path d="M404.327 140.775C404.794 139.484 405.578 138.331 406.606 137.423C407.634 136.515 408.874 135.881 410.211 135.58L410.884 139.589L412.132 135.378C413.864 135.404 415.544 135.981 416.928 137.026C418.312 138.071 419.329 139.529 419.832 141.191C420.335 142.853 420.298 144.632 419.727 146.272C419.155 147.912 418.079 149.327 416.652 150.313C415.226 151.299 413.524 151.806 411.792 151.759C410.06 151.713 408.387 151.116 407.016 150.054C405.644 148.993 404.644 147.522 404.161 145.854C403.678 144.187 403.736 142.408 404.327 140.775H404.327Z" fill="#57B894"/>
<path d="M404.776 139.328C405.243 138.036 406.026 136.883 407.055 135.975C408.083 135.068 409.323 134.434 410.66 134.132L411.333 138.141L412.581 133.93C414.313 133.956 415.993 134.533 417.377 135.578C418.761 136.623 419.778 138.082 420.281 139.744C420.784 141.406 420.747 143.185 420.176 144.824C419.604 146.464 418.527 147.879 417.101 148.865C415.675 149.852 413.973 150.358 412.241 150.312C410.508 150.265 408.836 149.668 407.464 148.607C406.093 147.545 405.093 146.075 404.61 144.407C404.127 142.739 404.185 140.96 404.776 139.328H404.776Z" stroke="#3F3D56" stroke-miterlimit="10"/>
<path d="M410.452 184.086C412.339 184.772 414.412 184.739 416.275 183.991C418.139 183.244 419.663 181.835 420.557 180.034C421.451 178.233 421.653 176.165 421.123 174.224C420.594 172.284 419.371 170.606 417.686 169.511L416.728 172.747L416.048 168.691C416.041 168.687 416.034 168.685 416.027 168.683C415.018 168.315 413.946 168.15 412.873 168.198C411.8 168.246 410.747 168.505 409.774 168.96C408.802 169.416 407.928 170.059 407.203 170.853C406.478 171.648 405.917 172.577 405.551 173.589C405.184 174.601 405.021 175.675 405.069 176.75C405.117 177.826 405.376 178.881 405.831 179.856C406.286 180.83 406.929 181.706 407.721 182.432C408.514 183.158 409.442 183.72 410.452 184.086H410.452Z" fill="#57B894"/>
<path d="M410.841 182.62C412.728 183.306 414.801 183.272 416.664 182.525C418.528 181.778 420.052 180.369 420.946 178.568C421.84 176.766 422.042 174.698 421.512 172.758C420.983 170.817 419.76 169.14 418.075 168.045L417.117 171.281L416.437 167.224C416.43 167.221 416.423 167.218 416.416 167.216C415.407 166.849 414.335 166.684 413.262 166.732C412.189 166.779 411.136 167.038 410.163 167.494C409.19 167.95 408.317 168.593 407.592 169.387C406.867 170.181 406.306 171.111 405.939 172.123C405.573 173.134 405.41 174.209 405.458 175.284C405.506 176.359 405.765 177.414 406.22 178.389C406.675 179.364 407.318 180.239 408.11 180.965C408.903 181.691 409.831 182.254 410.841 182.62H410.841Z" stroke="#3F3D56" stroke-miterlimit="10"/>
<path d="M401.941 197.693C402.266 199.543 403.215 201.226 404.63 202.458C406.045 203.69 407.84 204.397 409.713 204.46C411.587 204.523 413.425 203.939 414.919 202.805C416.414 201.671 417.474 200.057 417.922 198.232C418.37 196.408 418.178 194.485 417.379 192.785C416.581 191.086 415.223 189.713 413.534 188.898C411.846 188.083 409.929 187.874 408.105 188.307C406.281 188.74 404.661 189.789 403.517 191.277L407.159 196.772L402.182 193.855C401.796 195.097 401.714 196.413 401.941 197.693V197.693Z" fill="#57B894"/>
<path d="M402.278 196.607C402.603 198.458 403.552 200.14 404.967 201.372C406.382 202.604 408.177 203.311 410.05 203.374C411.924 203.438 413.762 202.853 415.256 201.719C416.751 200.585 417.811 198.971 418.259 197.147C418.707 195.322 418.515 193.399 417.716 191.7C416.917 190 415.56 188.628 413.871 187.812C412.182 186.997 410.265 186.788 408.441 187.221C406.617 187.655 404.998 188.703 403.853 190.191L407.496 195.686L402.519 192.77C402.133 194.011 402.051 195.327 402.278 196.607V196.607Z" stroke="#3F3D56" stroke-miterlimit="10"/>
<path d="M3.53795 185.127C4.3197 185.412 5.15678 185.511 5.9832 185.417C6.80962 185.322 7.6028 185.036 8.30021 184.582C8.99763 184.127 9.58022 183.517 10.0021 182.798C10.4239 182.08 10.6735 181.273 10.7311 180.441C10.7887 179.609 10.6528 178.776 10.3341 178.005C10.0154 177.235 9.52257 176.55 8.8945 176.003C8.26643 175.457 7.52028 175.064 6.71485 174.856C5.90942 174.647 5.06673 174.629 4.25321 174.803L4.38764 177.574L3.07974 175.199C1.7961 175.804 0.804436 176.895 0.322669 178.232C0.151573 178.7 0.0475594 179.19 0.0137311 179.688C-0.0688246 180.855 0.230556 182.018 0.866504 182.999C1.50245 183.981 2.44031 184.728 3.53795 185.127V185.127Z" fill="#57B894"/>
<path d="M10.0095 217.264C9.54781 214.907 11.5484 212.818 13.5246 211.46C15.5007 210.102 17.8097 208.768 18.484 206.464C19.453 203.152 16.5665 200.119 14.3199 197.504C12.6532 195.563 11.2218 193.431 10.0558 191.152C9.54887 190.257 9.2036 189.279 9.03588 188.264C8.85873 186.796 9.32928 185.335 9.80333 183.935C11.3826 179.27 13.071 174.644 14.8687 170.058" stroke="#3F3D56" stroke-miterlimit="10"/>
<path d="M3.75915 184.414C4.5409 184.699 5.37797 184.798 6.20439 184.703C7.03081 184.608 7.82398 184.323 8.5214 183.868C9.21881 183.414 9.8014 182.803 10.2232 182.085C10.6451 181.366 10.8947 180.559 10.9523 179.728C11.0099 178.896 10.874 178.062 10.5553 177.292C10.2366 176.522 9.74375 175.837 9.11569 175.29C8.48762 174.743 7.74147 174.351 6.93604 174.142C6.13061 173.934 5.28793 173.916 4.4744 174.09L4.60884 176.861L3.30093 174.486C2.01729 175.091 1.02563 176.181 0.54386 177.518C0.372766 177.986 0.268754 178.477 0.234924 178.974C0.152363 180.142 0.451742 181.304 1.08769 182.286C1.72364 183.268 2.6615 184.015 3.75915 184.414V184.414Z" stroke="#3F3D56" stroke-miterlimit="10"/>
<path d="M9.35303 169.101C9.65982 168.252 10.1747 167.495 10.8503 166.899C11.5259 166.302 12.3404 165.885 13.2188 165.687L13.661 168.321L14.4809 165.555C15.6193 165.572 16.7228 165.951 17.6322 166.637C18.5416 167.324 19.2098 168.282 19.5403 169.374C19.8708 170.466 19.8465 171.635 19.471 172.712C19.0955 173.79 18.3881 174.719 17.451 175.367C16.5139 176.015 15.3956 176.348 14.2576 176.318C13.1195 176.287 12.0206 175.895 11.1194 175.197C10.2183 174.5 9.56153 173.534 9.24403 172.438C8.92654 171.342 8.96471 170.174 9.35303 169.101V169.101Z" fill="#57B894"/>
<path d="M9.64797 168.15C9.95476 167.301 10.4697 166.544 11.1453 165.947C11.8208 165.351 12.6354 164.934 13.5138 164.736L13.956 167.37L14.7759 164.604C15.9142 164.621 17.0177 165 17.9271 165.686C18.8365 166.373 19.5047 167.331 19.8352 168.423C20.1657 169.515 20.1415 170.684 19.7659 171.761C19.3904 172.838 18.683 173.768 17.746 174.416C16.8089 175.064 15.6906 175.397 14.5525 175.366C13.4144 175.336 12.3155 174.944 11.4143 174.246C10.5132 173.549 9.85646 172.583 9.53897 171.487C9.22148 170.391 9.25965 169.222 9.64797 168.15V168.15Z" stroke="#3F3D56" stroke-miterlimit="10"/>
<path d="M13.3771 197.557C14.6169 198.008 15.9788 197.986 17.2033 197.495C18.4277 197.004 19.4291 196.078 20.0166 194.895C20.604 193.711 20.7364 192.352 20.3886 191.077C20.0407 189.802 19.2369 188.7 18.1304 187.981L17.5004 190.107L17.0537 187.442C17.0493 187.44 17.0447 187.438 17.04 187.437C16.3769 187.195 15.6727 187.087 14.9678 187.118C14.2629 187.149 13.571 187.319 12.9316 187.618C12.2923 187.918 11.7181 188.34 11.2419 188.862C10.7656 189.384 10.3966 189.995 10.156 190.66C9.91537 191.325 9.80782 192.03 9.83949 192.737C9.87116 193.444 10.0414 194.137 10.3406 194.777C10.6397 195.418 11.0619 195.993 11.5829 196.47C12.1039 196.947 12.7136 197.316 13.3771 197.557V197.557Z" fill="#57B894"/>
<path d="M13.6327 196.594C14.8725 197.044 16.2344 197.022 17.4588 196.531C18.6833 196.04 19.6847 195.115 20.2721 193.931C20.8595 192.748 20.992 191.389 20.6441 190.114C20.2963 188.839 19.4925 187.737 18.386 187.018L17.756 189.144L17.3093 186.478C17.3048 186.476 17.3003 186.475 17.2956 186.473C16.6326 186.232 15.9287 186.124 15.2241 186.156C14.5196 186.187 13.8281 186.358 13.1892 186.657C11.8989 187.262 10.9012 188.356 10.4155 189.698C9.92973 191.04 9.99581 192.52 10.5992 193.814C11.2025 195.107 12.2937 196.107 13.6327 196.594V196.594Z" stroke="#3F3D56" stroke-miterlimit="10"/>
<path d="M7.78569 206.497C7.99886 207.713 8.62261 208.818 9.55234 209.627C10.4821 210.437 11.6612 210.901 12.8921 210.943C14.1229 210.984 15.3306 210.6 16.3125 209.856C17.2945 209.111 17.991 208.05 18.2853 206.851C18.5796 205.653 18.4537 204.389 17.9288 203.272C17.4039 202.156 16.5119 201.254 15.4024 200.718C14.2929 200.183 13.0334 200.046 11.835 200.33C10.6367 200.615 9.57238 201.304 8.82067 202.281L11.2136 205.891L7.94396 203.975C7.69044 204.791 7.63616 205.656 7.78569 206.497V206.497Z" fill="#57B894"/>
<path d="M8.00689 205.784C8.22006 206.999 8.8438 208.105 9.77353 208.914C10.7033 209.724 11.8824 210.188 13.1133 210.23C14.3441 210.271 15.5518 209.887 16.5337 209.142C17.5157 208.397 18.2122 207.336 18.5065 206.138C18.8008 204.939 18.6749 203.676 18.15 202.559C17.6251 201.442 16.7331 200.541 15.6236 200.005C14.5141 199.469 13.2546 199.332 12.0562 199.617C10.8579 199.901 9.79358 200.59 9.04186 201.568L11.4348 205.178L8.16514 203.262C7.91163 204.078 7.85736 204.942 8.00689 205.784V205.784Z" stroke="#3F3D56" stroke-miterlimit="10"/>
<path d="M188.906 134.29C192.594 134.29 195.583 130.413 195.583 125.629C195.583 120.846 192.594 116.968 188.906 116.968C185.218 116.968 182.229 120.846 182.229 125.629C182.229 130.413 185.218 134.29 188.906 134.29Z" fill="#2F2E41"/>
<path d="M225.238 134.487C228.926 134.487 231.916 130.61 231.916 125.826C231.916 121.043 228.926 117.165 225.238 117.165C221.55 117.165 218.561 121.043 218.561 125.826C218.561 130.61 221.55 134.487 225.238 134.487Z" fill="#2F2E41"/>
<path d="M220.132 151.415C220.132 155.329 214.68 158.502 207.956 158.502C201.232 158.502 195.78 155.329 195.78 151.415C195.78 148.026 199.869 145.191 205.332 144.498C206.202 144.383 207.079 144.327 207.956 144.329C209.426 144.324 210.892 144.483 212.328 144.802C216.892 145.821 220.132 148.4 220.132 151.415Z" fill="#2F2E41"/>
<path d="M190.477 132.322C194.165 132.322 197.155 128.444 197.155 123.661C197.155 118.878 194.165 115 190.477 115C186.789 115 183.8 118.878 183.8 123.661C183.8 128.444 186.789 132.322 190.477 132.322Z" stroke="#3F3D56" stroke-miterlimit="10"/>
<path d="M226.809 132.519C230.497 132.519 233.487 128.641 233.487 123.858C233.487 119.074 230.497 115.197 226.809 115.197C223.122 115.197 220.132 119.074 220.132 123.858C220.132 128.641 223.122 132.519 226.809 132.519Z" stroke="#3F3D56" stroke-miterlimit="10"/>
<path d="M209.527 156.533C216.252 156.533 221.703 153.361 221.703 149.447C221.703 145.533 216.252 142.361 209.527 142.361C202.802 142.361 197.351 145.533 197.351 149.447C197.351 153.361 202.802 156.533 209.527 156.533Z" stroke="#3F3D56" stroke-miterlimit="10"/>
<path d="M212.473 145.392C212.476 145.887 212.291 146.365 211.954 146.727C211.796 146.901 211.603 147.04 211.388 147.136C211.173 147.231 210.94 147.281 210.705 147.282H206.778C206.294 147.265 205.836 147.057 205.505 146.703C205.174 146.348 204.996 145.877 205.01 145.392C205.008 145.008 205.12 144.633 205.332 144.313C206.201 144.19 207.078 144.13 207.956 144.132C209.428 144.127 210.895 144.297 212.328 144.636C212.425 144.876 212.474 145.133 212.473 145.392V145.392Z" fill="white"/>
<path d="M190.477 123.267C191.562 123.267 192.441 122.386 192.441 121.299C192.441 120.212 191.562 119.33 190.477 119.33C189.393 119.33 188.513 120.212 188.513 121.299C188.513 122.386 189.393 123.267 190.477 123.267Z" fill="white"/>
<path d="M227.006 123.267C228.09 123.267 228.97 122.386 228.97 121.299C228.97 120.212 228.09 119.33 227.006 119.33C225.921 119.33 225.042 120.212 225.042 121.299C225.042 122.386 225.921 123.267 227.006 123.267Z" fill="white"/>
<path opacity="0.3" d="M228.97 141.77C230.054 141.77 230.934 140.889 230.934 139.802C230.934 138.715 230.054 137.833 228.97 137.833C227.885 137.833 227.006 138.715 227.006 139.802C227.006 140.889 227.885 141.77 228.97 141.77Z" fill="#80CBC4"/>
<path opacity="0.3" d="M181.051 141.77C182.135 141.77 183.014 140.889 183.014 139.802C183.014 138.715 182.135 137.833 181.051 137.833C179.966 137.833 179.087 138.715 179.087 139.802C179.087 140.889 179.966 141.77 181.051 141.77Z" fill="#80CBC4"/>
</g>
<defs>
<clipPath id="clip0">
<rect width="422" height="230" fill="white"/>
</clipPath>
</defs>
</svg>
