<svg width="965" height="294" viewBox="0 0 965 294" fill="none" xmlns="http://www.w3.org/2000/svg">
<g clip-path="url(#clip0)">
<path d="M648.832 118.716C648.487 114.108 653.256 110.853 657.417 112.857L672.995 120.362C677.155 122.366 677.586 128.125 673.771 130.729L659.487 140.478C655.672 143.081 650.472 140.577 650.127 135.971L648.832 118.716Z" stroke="url(#paint0_linear)" stroke-width="6" stroke-linecap="round" stroke-linejoin="round"/>
<path d="M87.5596 25.3352C90.3584 24.048 93.5012 26.2713 93.216 29.3368L92.0366 42.0141C91.7515 45.0789 88.2535 46.6869 85.7399 44.9087L75.3449 37.5548C72.8313 35.7766 73.187 31.9456 75.9852 30.6586L87.5596 25.3352Z" stroke="url(#paint1_linear)" stroke-width="6" stroke-linecap="round" stroke-linejoin="round"/>
<circle cx="516.5" cy="89.5" r="28.5" fill="url(#paint2_radial)"/>
<g filter="url(#filter0_d)">
<path d="M964 264.984C812.752 350.384 853.804 63.6178 773.843 122.593C628.405 229.86 727.522 63.9151 570.861 94.9008C539.887 101.027 500.302 121.159 477.813 94.9008C440.067 50.8292 500.492 -21.8562 550.665 15.1756C582.287 38.515 569.656 103.336 545.038 130.327C528.998 147.913 499.151 142.777 477.813 140.686C407.136 133.758 333.328 150.045 341.141 197.288C348.954 244.532 431.79 246.118 436.622 182.949C438.112 163.461 436.174 140.533 427.71 122.593C411.75 88.763 368.292 70.7019 333.328 63.6178C280.208 52.855 241.811 63.6178 197.405 135.99C152.998 208.362 107.545 149.142 12.5 15.1756" stroke="white" stroke-width="3" stroke-linecap="round" stroke-linejoin="round"/>
</g>
<ellipse cx="332.581" cy="126.593" rx="15.5812" ry="15.5932" fill="url(#paint3_radial)"/>
<circle cx="912" cy="243" r="10" fill="url(#paint4_radial)"/>
<ellipse cx="786.374" cy="120.39" rx="15.5812" ry="15.5932" fill="url(#paint5_radial)"/>
<circle cx="134.5" cy="118.5" r="7.5" fill="url(#paint6_radial)"/>
</g>
<defs>
<filter id="filter0_d" x="-6.00012" y="0.5" width="978.5" height="303" filterUnits="userSpaceOnUse" color-interpolation-filters="sRGB">
<feFlood flood-opacity="0" result="BackgroundImageFix"/>
<feColorMatrix in="SourceAlpha" type="matrix" values="0 0 0 0 0 0 0 0 0 0 0 0 0 0 0 0 0 0 127 0"/>
<feOffset dx="-5" dy="9"/>
<feGaussianBlur stdDeviation="6"/>
<feColorMatrix type="matrix" values="0 0 0 0 0.53625 0 0 0 0 0.771919 0 0 0 0 0.9 0 0 0 0.28 0"/>
<feBlend mode="normal" in2="BackgroundImageFix" result="effect1_dropShadow"/>
<feBlend mode="normal" in="SourceGraphic" in2="effect1_dropShadow" result="shape"/>
</filter>
<linearGradient id="paint0_linear" x1="656.688" y1="107.549" x2="630.427" y2="128.522" gradientUnits="userSpaceOnUse">
<stop stop-color="#9557FA"/>
<stop offset="1" stop-color="#FF88EC"/>
</linearGradient>
<linearGradient id="paint1_linear" x1="98" y1="19" x2="65.2501" y2="32.1378" gradientUnits="userSpaceOnUse">
<stop stop-color="#FFD15B"/>
<stop offset="1" stop-color="#FF8848"/>
</linearGradient>
<radialGradient id="paint2_radial" cx="0" cy="0" r="1" gradientUnits="userSpaceOnUse" gradientTransform="translate(526 76.3056) rotate(122.939) scale(44.6495)">
<stop stop-color="#4ABFFF"/>
<stop offset="1" stop-color="#1373C1"/>
</radialGradient>
<radialGradient id="paint3_radial" cx="0" cy="0" r="1" gradientUnits="userSpaceOnUse" gradientTransform="translate(337.413 113.659) rotate(116.218) scale(29.2235 29.2098)">
<stop stop-color="#FFF460"/>
<stop offset="1" stop-color="#3DC72A"/>
</radialGradient>
<radialGradient id="paint4_radial" cx="0" cy="0" r="1" gradientUnits="userSpaceOnUse" gradientTransform="translate(915.101 234.705) rotate(116.235) scale(18.744)">
<stop stop-color="#FFDA7C"/>
<stop offset="1" stop-color="#FB7C24"/>
</radialGradient>
<radialGradient id="paint5_radial" cx="0" cy="0" r="1" gradientUnits="userSpaceOnUse" gradientTransform="translate(791.206 107.456) rotate(116.218) scale(29.2235 29.2098)">
<stop stop-color="#FF8979"/>
<stop offset="1" stop-color="#B80000"/>
</radialGradient>
<radialGradient id="paint6_radial" cx="0" cy="0" r="1" gradientUnits="userSpaceOnUse" gradientTransform="translate(136.826 112.279) rotate(116.235) scale(14.058)">
<stop stop-color="#DA78F1"/>
<stop offset="1" stop-color="#9558FA"/>
</radialGradient>
<clipPath id="clip0">
<rect width="965" height="294" fill="white"/>
</clipPath>
</defs>
</svg>
